<?xml version="1.0" encoding="utf-8"?>
<!-- Generator: Adobe Illustrator 25.0.0, SVG Export Plug-In . SVG Version: 6.00 Build 0)  -->
<svg version="1.1" id="Capa_1" xmlns="http://www.w3.org/2000/svg" xmlns:xlink="http://www.w3.org/1999/xlink" x="0px" y="0px"
	 viewBox="0 0 283.5 283.5" style="enable-background:new 0 0 283.5 283.5;" xml:space="preserve">
<style type="text/css">
	.st0{fill:none;stroke:#FFFFFF;stroke-width:35;stroke-linecap:round;stroke-linejoin:round;}
	.st1{fill:#FFFFFF;stroke:#FFFFFF;stroke-miterlimit:10;}
	.st2{fill:none;stroke:#FFFFFF;stroke-width:35;stroke-linecap:round;stroke-miterlimit:10;}
	.st3{fill:none;stroke:#FFFFFF;stroke-width:35;stroke-linecap:round;stroke-miterlimit:10;stroke-dasharray:28.5066,57.0131;}
</style>
<g>
	<g>
		<path class="st0" d="M183.4,66.5c-18.4-7.9-34.2-8.1-37.6-8.1c-21.3,0-36.6,7.5-43,10.7c-16.5,8.3-26.2,18.8-28.5,21.4
			c-2.8,3.1-11.6,13.4-17.8,29.6c-6.1,16-6.4,29.5-6.4,34"/>
		<g>
			<polygon class="st1" points="202,23.4 233.4,115.9 137.6,96.9 			"/>
		</g>
	</g>
	<g>
		<g>
			<path class="st2" d="M50.1,154.1c0,2.3,0.1,7.7,1.3,14.9"/>
			<path class="st3" d="M76,219.8L76,219.8c2.7,2.9,13.8,14.3,32.5,22.3c18,7.7,33.4,7.9,37.3,8c4,0,22.2-0.2,42.6-10.3
				c7.4-3.7,13.2-7.7,17.2-10.8"/>
			<path class="st2" d="M224.7,207.9c2.5-3.8,5-8.1,7.4-13.1"/>
		</g>
	</g>
</g>
</svg>
