<?xml version="1.0" encoding="utf-8"?>
<!-- Generator: Adobe Illustrator 25.0.0, SVG Export Plug-In . SVG Version: 6.00 Build 0)  -->
<svg version="1.1" id="Capa_1" xmlns="http://www.w3.org/2000/svg" xmlns:xlink="http://www.w3.org/1999/xlink" x="0px" y="0px"
	 viewBox="0 0 283.5 283.5" style="enable-background:new 0 0 283.5 283.5;" xml:space="preserve">
<style type="text/css">
	.st0{display:none;}
	.st1{display:inline;stroke:#000000;stroke-miterlimit:10;}
	.st2{display:none;fill:none;stroke:#FFFFFF;stroke-width:2;stroke-miterlimit:10;}
	.st3{fill:none;stroke:#FFFFFF;stroke-width:30;stroke-linejoin:round;}
	.st4{fill:#FFFFFF;}
</style>
<g id="Capa_2_1_" class="st0">
	<rect class="st1" width="283.5" height="283.5"/>
</g>
<rect x="101.9" y="101.9" class="st2" width="79.6" height="79.6"/>
<rect x="33.3" y="33.3" class="st2" width="216.9" height="216.9"/>
<g>
	<g>
		<line class="st3" x1="183.9" y1="101.6" x2="225.7" y2="59.8"/>
		<g>
			
				<rect x="180.6" y="80.2" transform="matrix(0.7071 -0.7071 0.7071 0.7071 -17.9855 159.7922)" class="st4" width="6.6" height="42.9"/>
		</g>
		<g>
			<polygon class="st4" points="193.5,35.3 250.2,92 250.2,35.3 			"/>
		</g>
	</g>
</g>
<g>
	<g>
		<line class="st3" x1="99.6" y1="101.6" x2="57.8" y2="59.8"/>
		<g>
			
				<rect x="78.2" y="98.3" transform="matrix(0.7071 -0.7071 0.7071 0.7071 -42.6726 100.1923)" class="st4" width="42.9" height="6.6"/>
		</g>
		<g>
			<polygon class="st4" points="33.3,92 90,35.3 33.3,35.3 			"/>
		</g>
	</g>
</g>
<g>
	<g>
		<line class="st3" x1="99.6" y1="185.9" x2="57.8" y2="227.7"/>
		<g>
			
				<rect x="96.3" y="164.4" transform="matrix(0.7071 -0.7071 0.7071 0.7071 -102.2724 124.8792)" class="st4" width="6.6" height="42.9"/>
		</g>
		<g>
			<polygon class="st4" points="90,252.2 33.3,195.5 33.3,252.2 			"/>
		</g>
	</g>
</g>
<g>
	<g>
		<line class="st3" x1="183.9" y1="185.9" x2="225.7" y2="227.7"/>
		<g>
			
				<rect x="162.4" y="182.6" transform="matrix(0.7071 -0.7071 0.7071 0.7071 -77.5854 184.479)" class="st4" width="42.9" height="6.6"/>
		</g>
		<g>
			<polygon class="st4" points="250.2,195.5 193.5,252.2 250.2,252.2 			"/>
		</g>
	</g>
</g>
</svg>
