<?xml version="1.0" encoding="utf-8"?>
<!-- Generator: Adobe Illustrator 24.2.0, SVG Export Plug-In . SVG Version: 6.00 Build 0)  -->
<svg version="1.1" id="Capa_1" xmlns="http://www.w3.org/2000/svg" xmlns:xlink="http://www.w3.org/1999/xlink" x="0px" y="0px"
	 viewBox="0 0 283.5 283.5" style="enable-background:new 0 0 283.5 283.5;" xml:space="preserve">
<style type="text/css">
	.st0{fill:#FFFFFF;}
</style>
<path class="st0" d="M229.4,228.9H56.2c-6.6,0-12-5.4-12-12v-1.2c0-6.6,5.4-12,12-12h173.2c6.6,0,12,5.4,12,12v1.2
	C241.4,223.4,236,228.9,229.4,228.9z"/>
<path class="st0" d="M229.4,79.8H56.2c-6.6,0-12-5.4-12-12v-1.2c0-6.6,5.4-12,12-12h173.2c6.6,0,12,5.4,12,12v1.2
	C241.4,74.4,236,79.8,229.4,79.8z"/>
<path class="st0" d="M229.4,154.4H56.2c-6.6,0-12-5.4-12-12v-1.2c0-6.6,5.4-12,12-12h173.2c6.6,0,12,5.4,12,12v1.2
	C241.4,148.9,236,154.4,229.4,154.4z"/>
</svg>
