<?xml version="1.0" encoding="utf-8"?>
<!-- Generator: Adobe Illustrator 25.0.0, SVG Export Plug-In . SVG Version: 6.00 Build 0)  -->
<svg version="1.1" id="Capa_4" xmlns="http://www.w3.org/2000/svg" xmlns:xlink="http://www.w3.org/1999/xlink" x="0px" y="0px"
	 viewBox="0 0 256 256" style="enable-background:new 0 0 256 256;" xml:space="preserve">
<style type="text/css">
	.st0{fill:#FFFFFF;}
</style>
<path class="st0" d="M188.6,117.9l0.2,70c0,2.7-2.2,4.9-4.9,4.9H72.4c-2.7,0-4.8-2.2-4.9-4.8L67.4,78.6c0-2.7,2.2-4.9,4.9-4.9h70.1
	c1.3,0,2.5-0.5,3.4-1.4l10-10c3.1-3.1,0.9-8.3-3.4-8.3H60.3c-6.8,0-12.2,5.5-12.2,12.2v134.2c0,6.6,5.3,11.9,11.9,11.9h134.1
	c6.8,0,12.2-5.5,12.2-12.2v-92.2c0-4.5-5.5-6.6-8.5-3.2l-6.5,6.2C189.5,112.8,188.6,115.3,188.6,117.9z"/>
<path class="st0" d="M221.7,34.4h-51.9c0,0-0.1,0-0.1,0c-4.8,0.1-7,6-3.6,9.3L178,55.6c2.1,2.1,2.1,5.6,0,7.7l-27.3,27.3
	c-2.1,2.1-2.1,5.6,0,7.7l11.4,11.4c2.1,2.1,5.6,2.1,7.7,0l27.3-27.3c2.1-2.1,5.6-2.1,7.7,0l13.3,13.3c3.2,3.2,8.9,1.4,9.3-3.1
	c0-0.2,0-0.4,0-0.6V40.2C227.5,37,224.9,34.4,221.7,34.4z"/>
</svg>
