<?xml version="1.0" encoding="utf-8"?>
<!-- Generator: Adobe Illustrator 25.0.0, SVG Export Plug-In . SVG Version: 6.00 Build 0)  -->
<svg version="1.1" id="Capa_1" xmlns="http://www.w3.org/2000/svg" xmlns:xlink="http://www.w3.org/1999/xlink" x="0px" y="0px"
	 viewBox="0 0 283.5 283.5" style="enable-background:new 0 0 283.5 283.5;" xml:space="preserve">
<style type="text/css">
	.st0{fill:#FFFFFF;}
</style>
<path class="st0" d="M189.8,62c19,0,34.4,15.4,34.4,34.4v90.8c0,19-15.4,34.4-34.4,34.4H99.1c-19,0-34.4-15.4-34.4-34.4V96.4
	c0-19,15.4-34.4,34.4-34.4H189.8 M189.8,44H99.1c-28.9,0-52.4,23.5-52.4,52.4v90.8c0,28.9,23.5,52.4,52.4,52.4h90.8
	c28.9,0,52.4-23.5,52.4-52.4V96.4C242.2,67.4,218.8,44,189.8,44L189.8,44z"/>
</svg>
